<?xml version="1.0" encoding="UTF-8" standalone="no"?>
<!-- Created with Inkscape (http://www.inkscape.org/) -->

<svg
   xmlns:dc="http://purl.org/dc/elements/1.1/"
   xmlns:cc="http://creativecommons.org/ns#"
   xmlns:rdf="http://www.w3.org/1999/02/22-rdf-syntax-ns#"
   xmlns:svg="http://www.w3.org/2000/svg"
   xmlns="http://www.w3.org/2000/svg"
   xmlns:sodipodi="http://sodipodi.sourceforge.net/DTD/sodipodi-0.dtd"
   xmlns:inkscape="http://www.inkscape.org/namespaces/inkscape"
   width="32"
   height="32"
   id="svg2"
   version="1.1"
   inkscape:version="0.48.2 r9819"
   inkscape:export-filename="D:\CEF\kv\car2\theme\action_off.png"
   inkscape:export-xdpi="90"
   inkscape:export-ydpi="90"
   sodipodi:docname="off.svg">
  <defs
     id="defs4" />
  <sodipodi:namedview
     id="base"
     pagecolor="#ffffff"
     bordercolor="#666666"
     borderopacity="1.0"
     inkscape:pageopacity="0.0"
     inkscape:pageshadow="2"
     inkscape:zoom="0.98994949"
     inkscape:cx="5.7429898"
     inkscape:cy="-23.448603"
     inkscape:document-units="px"
     inkscape:current-layer="layer1"
     showgrid="false"
     inkscape:window-width="779"
     inkscape:window-height="572"
     inkscape:window-x="25"
     inkscape:window-y="25"
     inkscape:window-maximized="0" />
  <metadata
     id="metadata7">
    <rdf:RDF>
      <cc:Work
         rdf:about="">
        <dc:format>image/svg+xml</dc:format>
        <dc:type
           rdf:resource="http://purl.org/dc/dcmitype/StillImage" />
        <dc:title></dc:title>
      </cc:Work>
    </rdf:RDF>
  </metadata>
  <g
     inkscape:label="Ebene 1"
     inkscape:groupmode="layer"
     id="layer1"
     transform="translate(0,-1020.3622)">
    <path
       style="fill:#858585;fill-opacity:1;fill-rule:nonzero;stroke:none"
       d="M 11.210183,7.4725572 C 7.2182851,9.3999111 4.65625,13.020417 4.65625,17.96875 c 0,6.459759 5.227741,11.71875 11.6875,11.71875 6.459759,0 11.6875,-5.258991 11.6875,-11.71875 0,-4.879324 -2.501932,-8.8715747 -6.745241,-10.6230964 0,0 -0.803818,-0.2667074 -1.420527,1.3380392 -0.606648,1.5785662 0.947018,2.2850572 0.947018,2.2850572 2.316907,1.467142 3.84375,4.053027 3.84375,7 0,4.585936 -3.726564,8.3125 -8.3125,8.3125 -4.585936,0 -8.3125,-3.726564 -8.3125,-8.3125 0,-3.02203 1.6151984,-5.647825 4.03125,-7.09375 0,0 1.139835,-0.535341 0.69448,-2.0800286 C 12.284332,7.1556212 11.210183,7.4725572 11.210183,7.4725572 z"
       transform="translate(0,1020.3622)"
       id="path3770"
       inkscape:connector-curvature="0"
       sodipodi:nodetypes="cssscscssscsc" />
    <rect
       style="fill:#858585;fill-opacity:1;fill-rule:nonzero;stroke:none"
       id="rect3780"
       width="4.6719556"
       height="15.152288"
       x="13.889597"
       y="1024.583"
       ry="2.3359778" />
  </g>
</svg>
