<?xml version="1.0" encoding="UTF-8" standalone="no"?>
<!-- Created with Inkscape (http://www.inkscape.org/) -->

<svg
   xmlns:dc="http://purl.org/dc/elements/1.1/"
   xmlns:cc="http://creativecommons.org/ns#"
   xmlns:rdf="http://www.w3.org/1999/02/22-rdf-syntax-ns#"
   xmlns:svg="http://www.w3.org/2000/svg"
   xmlns="http://www.w3.org/2000/svg"
   xmlns:sodipodi="http://sodipodi.sourceforge.net/DTD/sodipodi-0.dtd"
   xmlns:inkscape="http://www.inkscape.org/namespaces/inkscape"
   width="64"
   height="64"
   id="svg2"
   version="1.1"
   inkscape:version="0.48.2 r9819"
   sodipodi:docname="skoda.svg"
   inkscape:export-filename="D:\CEF\kv\car2\img\skoda_logo_white.png"
   inkscape:export-xdpi="90"
   inkscape:export-ydpi="90">
  <defs
     id="defs4" />
  <sodipodi:namedview
     id="base"
     pagecolor="#ffffff"
     bordercolor="#666666"
     borderopacity="1.0"
     inkscape:pageopacity="0.0"
     inkscape:pageshadow="2"
     inkscape:zoom="1.979899"
     inkscape:cx="26.655843"
     inkscape:cy="14.037493"
     inkscape:document-units="px"
     inkscape:current-layer="layer1"
     showgrid="false"
     inkscape:window-width="779"
     inkscape:window-height="425"
     inkscape:window-x="515"
     inkscape:window-y="205"
     inkscape:window-maximized="0"
     showguides="true"
     inkscape:guide-bbox="true" />
  <metadata
     id="metadata7">
    <rdf:RDF>
      <cc:Work
         rdf:about="">
        <dc:format>image/svg+xml</dc:format>
        <dc:type
           rdf:resource="http://purl.org/dc/dcmitype/StillImage" />
        <dc:title></dc:title>
      </cc:Work>
    </rdf:RDF>
  </metadata>
  <g
     inkscape:label="Ebene 1"
     inkscape:groupmode="layer"
     id="layer1"
     transform="translate(0,-988.36218)">
    <g
       id="layer1-9"
       inkscape:label="Ebene 1"
       transform="matrix(0.86607185,0,0,0.86607185,-265.06027,510.43439)"
       style="fill:#ffffff">
      <path
         style="fill:#ffffff;fill-opacity:1"
         d="m 31.375,10.6875 -0.53125,0.03125 C 28.836325,10.818227 26.949709,11.131685 25.125,11.75 l -0.15625,0.09375 c -0.355878,0.183824 -0.59375,0.540209 -0.59375,0.96875 0,0.269166 0.09132,0.52598 0.25,0.71875 l 0.21875,0.1875 c 1.788906,1.323981 3.435073,2.830402 4.9375,4.46875 l 0.15625,0.15625 c 0.156603,0.172842 0.21875,0.290073 0.21875,0.5 0,0.380379 -0.33773,0.6875 -0.71875,0.6875 -0.190986,0 -0.344616,-0.06192 -0.46875,-0.1875 l -0.21875,-0.25 c -1.652188,-1.796865 -3.52192,-3.412538 -5.53125,-4.8125 l -0.625,-0.375 c -0.281707,-0.130508 -0.575367,-0.1875 -0.90625,-0.1875 -0.332797,0 -0.653402,0.05537 -0.9375,0.1875 l -0.375,0.1875 c -1.832036,1.188103 -3.490082,2.637396 -4.875,4.3125 l -0.21875,0.4375 c -0.05846,0.133687 -0.09375,0.283919 -0.09375,0.4375 0,0.383566 0.201586,0.707313 0.5,0.90625 l 0.21875,0.125 c 2.064005,0.607012 3.985924,1.510498 5.75,2.65625 l 0.1875,0.09375 c 0.170937,0.126845 0.28125,0.333311 0.28125,0.5625 0,0.381808 -0.305363,0.6875 -0.6875,0.6875 0,0 -0.172283,0.01259 -0.3125,-0.0625 -0.08479,-0.04374 -0.21875,-0.125 -0.21875,-0.125 -1.771559,-1.147346 -3.727008,-2.029547 -5.8125,-2.59375 L 14.4375,21.4375 c -0.668452,0 -1.235406,0.401516 -1.5,0.96875 L 12.78125,22.625 c -0.756176,1.544605 -1.323828,3.211306 -1.6875,4.9375 L 11.0625,27.875 c -0.0052,0.04711 0,0.07963 0,0.125 0,0.611949 0.514445,1.125 1.125,1.125 L 12.5,29.09375 c 0.146609,-0.0043 0.290476,0 0.4375,0 6.297719,0 11.481855,4.777978 12.125,10.90625 l 0.0625,0.375 c 0.0043,0.03915 0,0.05615 0,0.09375 0,0.612114 -0.514004,1.125 -1.125,1.125 L 23.59375,41.5625 c -0.552909,-0.08055 -0.992088,-0.293162 -1.5625,-0.71875 l -0.1875,-0.125 c -0.727665,-0.517253 -1.560871,-0.921711 -2.4375,-1.1875 0,0 -0.868463,-0.06226 -1.40625,-0.03125 l -5.1875,0 c -0.305576,0 -0.5625,0.226627 -0.5625,0.53125 0,0.169508 0.06795,0.338023 0.1875,0.4375 L 12.46875,40.5 c 1.940287,1.257164 3.346859,3.305265 3.71875,5.6875 0.01382,0.267381 0.210576,0.491928 0.46875,0.53125 l 1.125,0 c 1.148628,0 2.206466,-0.240371 3.1875,-0.65625 L 22.5,45.34375 C 23.377746,45.028309 24.323983,44.875 25.3125,44.875 l 15.84375,0 c 0.460274,0 0.8125,0.355405 0.8125,0.8125 L 42,46.0625 c 0.0069,0.2381 0.161574,0.428055 0.375,0.5 l 0.1875,0.0625 c 0.25194,0.02373 0.522147,0.03125 0.78125,0.03125 2.739221,0 5.172818,-1.331452 6.6875,-3.375 0,0 0.07694,-0.100395 0.15625,-0.25 -0.06729,-0.11459 -0.1875,-0.25 -0.1875,-0.25 -1.517228,-2.014111 -3.937876,-3.3125 -6.65625,-3.3125 -0.220424,0 -0.437896,0.01358 -0.65625,0.03125 l -0.125,0 C 42.275224,39.5 42.026415,39.718293 42,40 l -0.03125,0.34375 c 0,0.459962 -0.352226,0.8125 -0.8125,0.8125 -0.460915,0 -0.84375,-0.352538 -0.84375,-0.8125 0,-0.158517 0.15625,-0.53125 0.15625,-0.53125 1.41394,-3.079812 2.1875,-6.484742 2.1875,-10.09375 0,-6.593639 -2.607093,-12.597607 -6.875,-16.96875 l -0.5,-0.46875 C 34.280331,11.293088 32.893181,10.6875 31.375,10.6875 z m 3.90625,22.65625 c 1.685454,0 3.0625,1.379272 3.0625,3.0625 0,1.683704 -1.377046,3.0625 -3.0625,3.0625 -1.683228,0 -3.0625,-1.378796 -3.0625,-3.0625 0,-1.683228 1.379272,-3.0625 3.0625,-3.0625 z"
         transform="matrix(1.1546386,0,0,1.1546386,306.63201,551.83388)"
         id="path2850"
         inkscape:connector-curvature="0"
         sodipodi:nodetypes="ccccsccccssccccsccccsccccscccccccccsccsccsccccccssccccsccssccccscccscsccsscscccsssss" />
    </g>
    <g
       id="g3774"
       transform="matrix(1.032047,0,0,1.032047,67.870761,-139.17428)">
      <g
         id="g2993"
         inkscape:label="Ebene 1"
         transform="matrix(0.86607185,0,0,0.86607185,-309.13678,456.14868)">
        <path
           inkscape:connector-curvature="0"
           id="path2995"
           transform="matrix(1.1546386,0,0,1.1546386,398.59073,536.57615)"
           d="m -47.65625,17.5 c -15.304364,0 -27.6875,12.414394 -27.6875,27.71875 0,15.308495 12.383136,27.71875 27.6875,27.71875 15.308019,0 27.71875,-12.410255 27.71875,-27.71875 C -19.9375,29.914394 -32.348231,17.5 -47.65625,17.5 z m 0,5 c 12.550654,0 22.75,10.170166 22.75,22.71875 0,12.552568 -10.199346,22.71875 -22.75,22.71875 C -60.205155,67.9375 -70.375,57.771318 -70.375,45.21875 -70.375,32.670166 -60.205155,22.5 -47.65625,22.5 z M -63.4375,59.53125 c 0.04859,0.18013 0.169953,0.314533 0.34375,0.375 -0.117687,-0.120803 -0.228871,-0.2515 -0.34375,-0.375 z"
           style="fill:#1e9d1e;fill-opacity:1" />
      </g>
      <g
         transform="matrix(1.0446146,0,0,1.0446146,-370.48104,351.02494)"
         inkscape:label="Ebene 1"
         id="g3770">
        <path
           style="fill:#1e9d1e;fill-opacity:1"
           d="m -47.65625,17.5 c -15.304364,0 -27.6875,12.414394 -27.6875,27.71875 0,15.308495 12.383136,27.71875 27.6875,27.71875 15.308019,0 27.71875,-12.410255 27.71875,-27.71875 C -19.9375,29.914394 -32.348231,17.5 -47.65625,17.5 z m 0,5 c 12.550654,0 22.75,10.170166 22.75,22.71875 0,12.552568 -10.199346,22.71875 -22.75,22.71875 C -60.205155,67.9375 -70.375,57.771318 -70.375,45.21875 -70.375,32.670166 -60.205155,22.5 -47.65625,22.5 z M -63.4375,59.53125 c 0.04859,0.18013 0.169953,0.314533 0.34375,0.375 -0.117687,-0.120803 -0.228871,-0.2515 -0.34375,-0.375 z"
           transform="matrix(1.1546386,0,0,1.1546386,398.59073,536.57615)"
           id="path3772"
           inkscape:connector-curvature="0" />
      </g>
    </g>
    <g
       transform="matrix(0.95483078,0,0,0.95483078,43.196794,97.565694)"
       id="g3780"
       style="fill:none">
      <path
         inkscape:connector-curvature="0"
         id="path3784"
         d="m -11.584819,938.36218 c -15.304364,0 -27.6875,12.41439 -27.6875,27.71875 0,15.30849 12.383136,27.71875 27.6875,27.71875 15.308019,0 27.71875,-12.41026 27.71875,-27.71875 0,-15.30436 -12.410731,-27.71875 -27.71875,-27.71875 z m 0,5 c 12.550654,0 22.75,10.17017 22.75,22.71875 0,12.55257 -10.199346,22.71875 -22.75,22.71875 -12.548905,0 -22.71875,-10.16618 -22.71875,-22.71875 0,-12.54858 10.169845,-22.71875 22.71875,-22.71875 z m -15.78125,37.03125 c 0.04859,0.18013 0.169953,0.31453 0.34375,0.375 -0.117687,-0.1208 -0.228871,-0.2515 -0.34375,-0.375 z"
         style="fill:none;fill-opacity:1" />
      <g
         id="g3786"
         inkscape:label="Ebene 1"
         transform="matrix(1.0446146,0,0,1.0446146,-370.48104,351.02494)"
         style="fill:none" />
    </g>
  </g>
</svg>
