<?xml version="1.0" encoding="UTF-8" standalone="no"?>
<!-- Created with Inkscape (http://www.inkscape.org/) -->

<svg
   xmlns:dc="http://purl.org/dc/elements/1.1/"
   xmlns:cc="http://creativecommons.org/ns#"
   xmlns:rdf="http://www.w3.org/1999/02/22-rdf-syntax-ns#"
   xmlns:svg="http://www.w3.org/2000/svg"
   xmlns="http://www.w3.org/2000/svg"
   xmlns:sodipodi="http://sodipodi.sourceforge.net/DTD/sodipodi-0.dtd"
   xmlns:inkscape="http://www.inkscape.org/namespaces/inkscape"
   width="210mm"
   height="297mm"
   id="svg2"
   version="1.1"
   inkscape:version="0.48.2 r9819"
   sodipodi:docname="symbols.svg">
  <defs
     id="defs4">
    <linearGradient
       id="linearGradient3767">
      <stop
         style="stop-color:#21df48;stop-opacity:1;"
         offset="0"
         id="stop3769" />
      <stop
         style="stop-color:#00ff34;stop-opacity:0;"
         offset="1"
         id="stop3771" />
    </linearGradient>
  </defs>
  <sodipodi:namedview
     id="base"
     pagecolor="#ffffff"
     bordercolor="#666666"
     borderopacity="1.0"
     inkscape:pageopacity="0.0"
     inkscape:pageshadow="2"
     inkscape:zoom="0.7"
     inkscape:cx="247.99408"
     inkscape:cy="776.58469"
     inkscape:document-units="px"
     inkscape:current-layer="layer1"
     showgrid="false"
     inkscape:window-width="779"
     inkscape:window-height="626"
     inkscape:window-x="50"
     inkscape:window-y="50"
     inkscape:window-maximized="0"
     inkscape:snap-bbox="true"
     inkscape:bbox-paths="true"
     inkscape:bbox-nodes="true"
     inkscape:snap-bbox-midpoints="true"
     inkscape:object-paths="true"
     showguides="true"
     inkscape:guide-bbox="true"
     inkscape:snap-nodes="false"
     inkscape:snap-global="true"
     inkscape:snap-bbox-edge-midpoints="true" />
  <metadata
     id="metadata7">
    <rdf:RDF>
      <cc:Work
         rdf:about="">
        <dc:format>image/svg+xml</dc:format>
        <dc:type
           rdf:resource="http://purl.org/dc/dcmitype/StillImage" />
        <dc:title></dc:title>
      </cc:Work>
    </rdf:RDF>
  </metadata>
  <g
     inkscape:label="Ebene 1"
     inkscape:groupmode="layer"
     id="layer1">
    <path
       style="fill:#e6e6e6;stroke:#ffffff;stroke-width:2.59104657px;stroke-linecap:butt;stroke-linejoin:miter;stroke-opacity:1"
       d="m 245.5478,38.62363 c 18.79161,14.267261 27.39475,21.248786 47.9474,37.265139 2.54989,1.987095 6.36471,4.978368 6.36471,10.597503 0,5.619134 -3.81591,8.607384 -6.36471,10.597501 -17.28482,13.496147 -30.80874,23.883227 -47.45364,36.849157 -2.37516,1.85019 -13.59062,2.184 -13.59062,-6.2599 0,-25.35092 0,-57.959297 0,-82.789502 0,-8.502199 10.8544,-7.962448 13.09686,-6.259898 z"
       id="path2995"
       inkscape:connector-curvature="0"
       sodipodi:nodetypes="ssssssss"
       inkscape:export-filename="D:\CEF\kv\car\img\icons\play_normal.png"
       inkscape:export-xdpi="90"
       inkscape:export-ydpi="90" />
    <path
       inkscape:export-ydpi="90"
       inkscape:export-xdpi="90"
       inkscape:export-filename="D:\CEF\kv\car\img\icons\play_pressed.png"
       sodipodi:nodetypes="ssssssss"
       inkscape:connector-curvature="0"
       id="path3765"
       d="m 369.11923,38.62363 c 18.79161,14.267261 27.39475,21.248786 47.9474,37.265139 2.54989,1.987095 6.36471,4.978368 6.36471,10.597503 0,5.619134 -3.81591,8.607384 -6.36471,10.597501 -17.28482,13.496147 -30.80874,23.883227 -47.45364,36.849157 -2.37516,1.85019 -13.59062,2.184 -13.59062,-6.2599 0,-25.35092 0,-57.959297 0,-82.789502 0,-8.502199 10.8544,-7.962448 13.09686,-6.259898 z"
       style="fill:#6dca16;stroke:#91ff6c;stroke-width:2.59104657000000000px;stroke-linecap:butt;stroke-linejoin:miter;stroke-opacity:1;fill-opacity:1;fill-rule:nonzero" />
    <rect
       style="fill:#6dca16;fill-opacity:1;fill-rule:nonzero;stroke:#91ff6c;stroke-width:1.47769523;stroke-linecap:butt;stroke-linejoin:round;stroke-miterlimit:4;stroke-opacity:1;stroke-dasharray:none;stroke-dashoffset:0"
       id="rect3801"
       width="72.808014"
       height="72.808014"
       x="352.84598"
       y="169.56531"
       rx="7.1639132"
       ry="8.0282955"
       inkscape:export-filename="D:\CEF\kv\car\img\stop_pressed.png"
       inkscape:export-xdpi="90"
       inkscape:export-ydpi="90" />
    <rect
       style="fill:#6dca16;fill-opacity:1;fill-rule:nonzero;stroke:#91ff6c;stroke-width:1.5;stroke-linecap:butt;stroke-linejoin:round;stroke-miterlimit:4;stroke-opacity:1;stroke-dasharray:none;stroke-dashoffset:0"
       id="rect3803"
       width="20"
       height="67.85714"
       x="360.71426"
       y="263.07648"
       rx="7.1639132"
       ry="8.0282955"
       inkscape:export-filename="D:\CEF\kv\car\img\pause_pressed.png"
       inkscape:export-xdpi="90"
       inkscape:export-ydpi="90" />
    <rect
       ry="8.0282955"
       rx="7.1639132"
       y="263.07648"
       x="395.71426"
       height="67.85714"
       width="20"
       id="rect3805"
       style="fill:#6dca16;fill-opacity:1;fill-rule:nonzero;stroke:#91ff6c;stroke-width:1.5;stroke-linecap:butt;stroke-linejoin:round;stroke-miterlimit:4;stroke-opacity:1;stroke-dasharray:none;stroke-dashoffset:0"
       inkscape:export-filename="D:\CEF\kv\car\img\pause_pressed.png"
       inkscape:export-xdpi="90"
       inkscape:export-ydpi="90" />
    <path
       style="fill:#6dca16;fill-opacity:1;fill-rule:nonzero;stroke:#91ff6c;stroke-width:2.59104657px;stroke-linecap:butt;stroke-linejoin:miter;stroke-opacity:1"
       d="M 421.9375 381.5 C 418.02651 381.5 414.875 386.65669 414.875 393.09375 L 414.875 418.46875 C 396.20911 403.90092 387.08137 396.53937 369.125 382.90625 C 366.88254 381.2037 356.03125 380.65405 356.03125 389.15625 L 356.03125 471.96875 C 356.03125 480.41265 367.24984 480.06894 369.625 478.21875 C 385.51242 465.84287 398.6899 455.68561 414.875 443.0625 L 414.875 468.0625 C 414.875 474.49956 418.02651 479.6875 421.9375 479.6875 L 427.53125 479.6875 C 431.44224 479.6875 434.59375 474.49956 434.59375 468.0625 L 434.59375 393.09375 C 434.59375 386.65669 431.44224 381.5 427.53125 381.5 L 421.9375 381.5 z "
       id="path3807"
       inkscape:export-filename="D:\CEF\kv\car\img\forward_pressed.png"
       inkscape:export-xdpi="90"
       inkscape:export-ydpi="90" />
    <path
       inkscape:export-ydpi="90"
       inkscape:export-xdpi="90"
       inkscape:export-filename="D:\CEF\kv\car\img\backward_pressed.png"
       id="path3812"
       d="m 368.6875,517.21429 c 3.91099,0 7.0625,5.15669 7.0625,11.59375 l 0,25.375 c 18.66589,-14.56783 27.79363,-21.92938 45.75,-35.5625 2.24246,-1.70255 13.09375,-2.2522 13.09375,6.25 l 0,82.8125 c 0,8.4439 -11.21859,8.10019 -13.59375,6.25 -15.88742,-12.37588 -29.0649,-22.53314 -45.25,-35.15625 l 0,25 c 0,6.43706 -3.15151,11.625 -7.0625,11.625 l -5.59375,0 c -3.91099,0 -7.0625,-5.18794 -7.0625,-11.625 l 0,-74.96875 c 0,-6.43706 3.15151,-11.59375 7.0625,-11.59375 l 5.59375,0 z"
       style="fill:#6dca16;fill-opacity:1;fill-rule:nonzero;stroke:#91ff6c;stroke-width:2.59104657px;stroke-linecap:butt;stroke-linejoin:miter;stroke-opacity:1"
       inkscape:connector-curvature="0" />
    <rect
       inkscape:export-ydpi="90"
       inkscape:export-xdpi="90"
       inkscape:export-filename="D:\CEF\kv\car\img\stop_normal.png"
       ry="8.0282955"
       rx="7.1639132"
       y="169.56531"
       x="214.27455"
       height="72.808014"
       width="72.808014"
       id="rect3814"
       style="fill:#e6e6e6;fill-opacity:1;fill-rule:nonzero;stroke:#ffffff;stroke-width:1.47769522999999990;stroke-linecap:butt;stroke-linejoin:round;stroke-miterlimit:4;stroke-opacity:1;stroke-dasharray:none;stroke-dashoffset:0" />
    <rect
       inkscape:export-ydpi="90"
       inkscape:export-xdpi="90"
       inkscape:export-filename="D:\CEF\kv\car\img\pause_normal.png"
       ry="8.0282955"
       rx="7.1639132"
       y="263.07648"
       x="222.14284"
       height="67.85714"
       width="20"
       id="rect3816"
       style="fill:#e6e6e6;fill-opacity:1;fill-rule:nonzero;stroke:#ffffff;stroke-width:1.50000000000000000;stroke-linecap:butt;stroke-linejoin:round;stroke-miterlimit:4;stroke-opacity:1;stroke-dasharray:none;stroke-dashoffset:0" />
    <rect
       inkscape:export-ydpi="90"
       inkscape:export-xdpi="90"
       inkscape:export-filename="D:\CEF\kv\car\img\pause_normal.png"
       style="fill:#e6e6e6;fill-opacity:1;fill-rule:nonzero;stroke:#ffffff;stroke-width:1.50000000000000000;stroke-linecap:butt;stroke-linejoin:round;stroke-miterlimit:4;stroke-opacity:1;stroke-dasharray:none;stroke-dashoffset:0"
       id="rect3818"
       width="20"
       height="67.85714"
       x="257.14282"
       y="263.07648"
       rx="7.1639132"
       ry="8.0282955" />
    <path
       inkscape:export-ydpi="90"
       inkscape:export-xdpi="90"
       inkscape:export-filename="D:\CEF\kv\car\img\forward_normal.png"
       id="path3820"
       d="m 283.36607,381.5 c -3.91099,0 -7.0625,5.15669 -7.0625,11.59375 l 0,25.375 c -18.66589,-14.56783 -27.79363,-21.92938 -45.75,-35.5625 -2.24246,-1.70255 -13.09375,-2.2522 -13.09375,6.25 l 0,82.8125 c 0,8.4439 11.21859,8.10019 13.59375,6.25 15.88742,-12.37588 29.0649,-22.53314 45.25,-35.15625 l 0,25 c 0,6.43706 3.15151,11.625 7.0625,11.625 l 5.59375,0 c 3.91099,0 7.0625,-5.18794 7.0625,-11.625 l 0,-74.96875 c 0,-6.43706 -3.15151,-11.59375 -7.0625,-11.59375 l -5.59375,0 z"
       style="fill:#e6e6e6;fill-opacity:1;fill-rule:nonzero;stroke:#ffffff;stroke-width:2.59104657000000000px;stroke-linecap:butt;stroke-linejoin:miter;stroke-opacity:1"
       inkscape:connector-curvature="0" />
    <path
       inkscape:connector-curvature="0"
       style="fill:#e6e6e6;fill-opacity:1;fill-rule:nonzero;stroke:#ffffff;stroke-width:2.59104657000000000px;stroke-linecap:butt;stroke-linejoin:miter;stroke-opacity:1"
       d="m 230.11607,517.21429 c 3.91099,0 7.0625,5.15669 7.0625,11.59375 l 0,25.375 c 18.66589,-14.56783 27.79363,-21.92938 45.75,-35.5625 2.24246,-1.70255 13.09375,-2.2522 13.09375,6.25 l 0,82.8125 c 0,8.4439 -11.21859,8.10019 -13.59375,6.25 -15.88742,-12.37588 -29.0649,-22.53314 -45.25,-35.15625 l 0,25 c 0,6.43706 -3.15151,11.625 -7.0625,11.625 l -5.59375,0 c -3.91099,0 -7.0625,-5.18794 -7.0625,-11.625 l 0,-74.96875 c 0,-6.43706 3.15151,-11.59375 7.0625,-11.59375 l 5.59375,0 z"
       id="path3822"
       inkscape:export-filename="D:\CEF\kv\car\img\backward_normal.png"
       inkscape:export-xdpi="90"
       inkscape:export-ydpi="90" />
  </g>
</svg>
